<svg xmlns="http://www.w3.org/2000/svg" width="24" height="24"><path fill="#C79F2A" fill-rule="nonzero" d="M15.136.509c.017.013-.01.057-.01.057-.426.103-1.115.222-1.265.726-.074.27-.071.427-.003.56.174.327.614.385.992.255.457-.153.873-.75 1.016-1.384.198.058.498.12.617.16-.29.75-.474 1.494-.494 1.858a49 49 0 0 1-.658-.17l.01-.276c-.316.076-.529.106-.832.048-.263-.052-1.35-.239-1.422-.716a.921.921 0 0 1 .171-.737c.25-.362.75-.422 1.046-.422-.238-.086-.729-.12-.729-.12l.112-.201s.962.232 1.45.362Zm-3.623.033c-.079.256-.328.365-.536.467.212-.017.474-.095.69-.099-.035.106-.073.154-.11.212-.283.065-1.545.204-1.943.29-.045.198.347.647.699.62.514-.013 1.107-.586 1.148-.61.045.024-.112.379-.225.56-.45.139-1.125.207-1.336.262-.426.105-1.374-.379-.917-1.44.293-.68 1.183-.643 1.875-.79.256-.051.818.017.655.528ZM9.995.382c-.272.256-.484.563-.409.924.4-.051.863-.242 1.067-.463.46-.515-.204-.887-.658-.46ZM8.833 2.534c-.092.081-.587.31-.587.31-.075-.058-.119-.14-.194-.181-.222.246-.426.467-.733.603-.365.17-.682.47-1.149.334a.855.855 0 0 1-.542-.535c-.119-.34.086-.777.338-1.084-.188.055-.358.191-.542.273-.014-.068-.004-.167 0-.239.408-.219.824-.422 1.247-.61.065-.014.093.02.048.099-.28.334-.457.787-.45 1.21 0 .283.6.84 1.026.447.345-.318.44-.72.44-1.129 0-.365-.18-.682-.307-.968.14-.068.617-.334.617-.334.157.511.29 1.115.788 1.804Zm9.235-.802-.061.242c.477-.126 1.278.624 1.456.716.33.164.81 1.241-.458 1.48-.204.037-.528-.092-.59-.048-.02.044.604.392.604.392l-.286.078-1.241-.913c.014-.003-.017-.058.055-.027.402.136 1.063.323 1.544-.232.583-.672-.375-1.316-.975-1.142-.215.061-.876.395-1.227.988l-.57-.392c.522-.518 1.098-1.213 1.153-1.523.262.153.596.381.596.381Zm3.167 2.584c-.426.25-.866.668-1.476 1.282-.15-.15-.508-.515-.508-.515.47-.388 1.067-.74 1.33-1.295.01-.017.034-.167.112-.082.072.085.542.61.542.61Zm-9.743 2.922c.256-.004.344.003.716-.007.153-.01.239-.273.29-.423.037.017.116.007.147.038-.116.215-.416 1.159-.734 1.159-.678-.003-.883.065-1.125.17.106-.235.641-1.053.57-1.776a1.02 1.02 0 0 0-.32-.61c-.127.113-.822 1.101-1.296 1.152-.682.079-1.473-.01-2.168.096-.62.153-.768.968-1.381 1.101-.481.038-1.193-.003-1.503.286-.222.195-.423.563-.437.808.201-.29.488-.477.808-.528.845-.034 1.643-.041 2.444-.068.167-.007.253-.188.338-.212.04 0 .071-.017.05.044-.067.11-.429.706-.77.764-.88.027-1.687.065-2.54.106-.265.027-.477.245-.654.42h-.143c.054-.25.821-1.794 1.077-2.074.447-.484 1.18-.242 1.732-.334.464-.194 1.21-1.073 1.32-1.159.555 0 1.827.004 1.888-.058.668-.13 1.282-.6 1.684-1.18.532.515.324 1.651.007 2.285Zm10.411-1.98.61 1.107c-.985-.549-1.633-.222-1.782.038-.491.855 1.05 1.305 1.5 1.128.555-.211.423-.573.32-.736.167.037.491.358.491.358a.79.79 0 0 1-.153.746c-.225.29-.508.314-.894.304-.504-.014-1.131-.747-1.57-1.477-.178-.306-.172-.753-.042-.944.478-.695 1.435-.099 1.637-.013l-.352-.495c.089-.037.17 0 .235-.017ZM5.54 3.5c.269.584-.065 1.129-.508 1.6a3.988 3.988 0 0 1-.887.688c-.303.423-.518.887-.766 1.333-.348.42-1.054.457-1.214 1.006.15.112.498.28.498.28s-.205.408-.328.582c-.746-.576-1.094-.702-1.663-.917-.028-.03.266-.597.266-.597l.173.014s.021-.3.072-.453c.065-.242.17-.297.29-.634.102-.246.307-.508.562-.576.167-.024.808.01.638 1.159.109-.13 1.17-.488 1.012-.856-.371-.535-.808-.9-1.285-1.258-.013-.017.467-.505.467-.505s.1.157.18.106a1.49 1.49 0 0 1 .37-.576c.17-.16.289-.348.466-.562.276-.28.648-.492 1.064-.362.286.085.47.26.593.528Zm-1.834.29c-.17.277-.225.747 0 1.275.255.607 1.131.25 1.22-.187.167-.368.167-.904-.17-1.207-.355-.32-.832-.232-1.05.12ZM1.534 6.583c-.201.263-.13.754.02 1.017.12.228.31.402.505.453.307-.453.382-1.07.123-1.449-.072-.106-.413-.334-.648-.02ZM18.53 8.51c-.12.429-.181 1.067-.682 1.043-1.037-.038-1.8-.055-2.817-.13-.487-.037-.542.17-.644.352-.064.054-.174-.045-.174-.045.283-.528.416-1.111 1.29-1.016.722.078 1.124.126 1.864.17.327.018.872.144.992-.409a.157.157 0 0 1 .17.035Zm-16.29.862c-.01.28-.057.757-.057.757s-.167.02-.239.027c.194.474.11 1.084.11 1.568 0 .263-.195.676-.604.757-.426.078-.992-.187-1.187-.88-.04.219-.04.662-.04.662L0 12.143l.153-1.428s.069-.05.106.017c.112.488.498 1.006.917 1.06.839.117.808-.654.73-.872-.103-.225-.235-.495-.511-.703-.256-.197-.641-.337-1.136-.344.017-.246.068-.712.068-.712.6.184 1.163.2 1.913.211Zm21.44-.105c.198.422.27.886.24 1.363-.008.256-.092.506-.345.59-.345.115-.532-.57-.641-.675-.027.017.15.828.15.828-.082.004-.211-.13-.211-.13-.092-.654-.222-1.325-.341-1.956-.3-.072-.628.45-.603.76.027.341.33.808.593 1.139-.185-.03-.359-.136-.529-.218-.235-.617-.378-1.534-.184-2.025a.776.776 0 0 1 .597-.443c.456-.042.988.166 1.275.767Zm-.668-.008a.72.72 0 0 0-.35 0c.064.427.183.836.49 1.15.508.286.822-.144.48-.672-.153-.246-.364-.42-.62-.478Zm-15.18 1.006c.392.723.115 1.517-.18 2.12-.13.39-.253.71-.253.71l-.15-.048c.102-.183.153-.334.218-.49.225-.563.378-1.16.058-1.722-.256-.495-.743-.87-1.316-.856-.324.014-.62.099-.89.26-.088.122-.18.47-.34.606-.216.187-.362.487-.406.545-.051.004-.11-.061-.154-.078.218-.256.369-.545.304-.665-.116-.037-.505.515-.505.515s-.058-.04-.092-.068c.136-.198.245-.369.341-.59.17-.201.44-.249.651-.351a2.42 2.42 0 0 1 1.306-.644c.6-.062 1.131.238 1.408.756Zm11.154 1.132c.198-.007.416-.109.512-.49.05-.008.126.023.13.095-.08.323-.233 1.07-.771 1.009a88.307 88.307 0 0 1-3.427-.508c-.422-.11-.617.3-.617.3-.034.037-.119.054-.163-.045a9.48 9.48 0 0 1 .375-.647c.256-.362.828-.212.828-.212s2.816.467 3.133.498Zm5.015.811-.072.692c-.061.017-.167-.017-.2.048.02.068.081.235.081.334.034.706-.048 1.81-.733 1.688-.627-.113-.61-.764-.655-1.03-.317.307-.726.63-1.005.968-.103.123-.153.402-.246.386 0-.045.187-1.074.187-1.074.27-.317 1.163-.832 1.15-1.548-.171-.089-.597-.15-.597-.15s.112-.576.15-.713c.59.205 1.262.335 1.94.4Zm-1.326.502c-.054.068-.058.173-.068.272-.02.477.19 1.279.648 1.282.31 0 .463-.31.446-.566-.038-.45-.528-.968-1.026-.988Zm-3.464.797c.038-.054.17.017.157.034.027-.065-.273 1.02-.924.833l-2.516-.785c-.3-.136-.47.225-.47.225-.051.007-.16.065-.188-.065.12-.157.563-.712.563-.712.18-.198.562-.052.876.058.73.249 1.074.392 1.749.64.613.233.709-.05.753-.228Zm-16.868.48c.133.372.11.645.17.986.1.085 1.03-.157 1.03-.157s.061.433.078.658c-1.165.17-2.018.372-2.89.604a85.324 85.324 0 0 1-.168-.689l.174-.079c-.05-.194-.184-.32-.201-.408-.088-.457-.399-1.064-.164-1.473.181-.327.495-.453.873-.446.672.013 1.006.753 1.098 1.005Zm-1.554-.173c-.188.17-.314.395-.287.617.078.542.832.726 1.067.733.212.004.433.02.57-.133.146-.16.262-.464.15-.75-.167-.436-1.07-.87-1.5-.467Zm16.151-8.277c-.102.436-.194 1.275-.742 1.288-.509.007-1.838-.044-2.319.11-.167.047-.365.541-.392.664-.05.205-.27.795-.307 1.643-.05 1.255.512 2.216.788 3.144.416 1.384.57 2.13.593 3.521a13.98 13.98 0 0 1-.28 3.02c-.17.809-.381 1.45-.828 2.387a12.097 12.097 0 0 1-1.326 2.134c-3.62-.082-6.903-1.667-9.177-4.507-.378-.504-1.118-1.599-1.118-1.599 1.837-1.09 2.461-1.544 5.649-3.869 2.407-.525 3.3-.736 5.608-1.486-.54-1.37-.273-3.645.79-5.66a.901.901 0 0 1 .624-.269c.682-.01 1.286-.01 1.967 0 .198-.078.225-.334.276-.508.051-.02.133-.054.194-.013Zm-9.108 8.478s6.231 4.262 6.235 4.262c.286-1.944.106-3.836-.695-5.71a193.9 193.9 0 0 0-5.54 1.448Zm-5.462 3.59c.86 1.585 3.15 3.638 5.08 4.251 0-3.927-.174-5.434-.174-7.548 0 0-3.832 2.513-4.906 3.297Zm5.428-2.976s.228 6.924.282 7.432c1.36.446 2.776.705 4.242.64 1.042-1.217 1.626-3.494 1.602-3.773l-6.126-4.3Zm8.587.379c.525.415.886.705 1.333 1.063.358.263.576.11.607.044.085.024.177.024.109.106.085-.075-.685.75-1.091.385-.512-.399-.802-.64-1.306-1.036-.245-.222-.409 0-.518.075-.068 0-.157-.007-.147-.113.294-.218.659-.746 1.013-.524Zm5.56.524-.283.624c-.576-.33-.716.266-.73.49-.003.113.192.676.638.328.273-.21.62-1.282 1.067-1.114.43.105.45.583.082 1.35-.28.572-.525.906-.746.933-.113.008-.256.042-.317-.044.112-.18.28-.565.28-.565.128.071.255.078.38.016.171-.081.29-.433.26-.552-.089-.371-.33-.402-.502-.235-.146.14-.32.46-.48.78-.221.45-.811.461-1.053-.078-.096-.194.133-.808.239-1.053.126-.283.702-1.268 1.165-.88Zm-.347 3.41-.526.67c-.14-.234-.613-.613-1.57-1.274.067-.079.473-.583.473-.583s.613.668 1.128 1.005c.212.137.29.133.423.106.109-.01.136 0 .072.075Zm-1.705 1.336c.177-.133.529-.457.529-.457l.023.222s-.307.3-.426.44a.97.97 0 0 0 .296.303c-.102.105-.613.497-.613.497s-.239-.347-.249-.344c-.222.211-.464.43-.682.634l-.03-.28c.228-.17.508-.422.593-.508-.031-.225-.604-1.036-1.023-1.196-.314-.126-.423.395-.467.692l-.167-.41c.075-.122.177-.207.307-.316.259-.235.535-.382.855-.338.491.072 1.054 1.06 1.054 1.06Zm-3.037-.201c-.147.112-.33.218-.509.3-.112-.034-.027-.17-.31-.157-.248.01-.79.177-.985.528-.105.26.058.505.184.72h.027c.304-.556 1-.795 1.392-.958a.846.846 0 0 1 .865.156c.226.21.256.447.242.754-.013.453-.545.811-.545.845.02.017.746-.415.746-.415.02.074.007.245.007.245s-.869.402-1.261.614c-.068.023-.12-.018-.11-.082.341-.327.564-.76.488-1.241-.058-.239-.256-.515-.511-.58-.327-.054-.603.154-.777.43a1.29 1.29 0 0 0-.195.487c-.163.467.103.934.253 1.344-.167.105-.26.126-.43.215-.119.047-.146-.045-.17-.127-.232-.617-.549-1.193-.702-1.861-.045-.723 1.312-1.422 2.185-1.302.037.027.102.033.116.085Z"/></svg>