<svg xmlns="http://www.w3.org/2000/svg" width="24" height="26"><g fill="none" fill-rule="nonzero"><path fill="#FEFEFE" d="M5.122 8.603S0 8.271 0 8.26c.043 0 .526-1.289.558-1.375C1.793 4.105 4.005 1.881 6.872.807 12.51-1.297 19.382.786 22.26 6.198c1.214 2.287 1.826 4.94 1.472 7.517-.15 1.127-.398 2.18-.87 3.2-.065.14-.913 1.772-1.085 1.976l-3.36-3.254-.549-1.729-.247 1.933L24 22.703c-1.417-.623-2.846-1.257-4.263-1.88-1.02-.45-2.051-.901-3.071-1.352-.999-.44-2.03-1.106-3.157-.784l-.097.032c-1.149.365-2.233 1.149-3.264 1.782a488.261 488.261 0 0 0-3.125 1.912c-1.568.956-2.9 1.74-4.467 2.706a.443.443 0 0 0-.118.075l2.319-8.548-2.76 2.9s1.31-7.195 4.446-10.19l-1.128-.409-.193-.344Z"/><path fill="#0658A3" d="M18.438 14.016c-.011-.022-.022-.054-.033-.076-.268-.504-.343-1.052-.397-1.61-.118-1.16-.59-2.18-1.342-3.071-.988-1.182-2.255-1.89-3.78-2.105-1.375-.193-2.674.064-3.887.762-.043.022-.086.054-.14.086.064.043.118 0 .172-.021 2.405-1.02 5.058-.505 6.808 1.406 1.557 1.697 1.987 3.694 1.331 5.917-.01.022-.021.043-.032.054-.88-.687-1.815-1.267-2.91-1.579.108-.118.215-.14.333-.118.365.054.741.108 1.106.172.097.01.14.01.15-.107.076-.688.065-1.375-.085-2.051-.44-2.008-2.051-2.835-3.469-3.007-.344-.075-.687-.065-1.03-.032-1.558.118-2.846.751-3.845 1.976a5.248 5.248 0 0 0-.87 1.524c-.01.033-.064.086 0 .13.054.031.075 0 .118-.022.097-.043.194-.075.29-.097a7.44 7.44 0 0 1 1.289-.097c.848.011 1.696.022 2.545 0 .043.022.096.011.14.011h1.492c.01.065-.032.108-.054.15-.236.409-.558.741-.912 1.042-.13.097-.258.193-.398.29-.247.15-.494.3-.762.43-.913.44-1.88.72-2.878.88-.118.022-.183.054-.215.183-.311 1.46-.633 2.931-.956 4.392-.085.397-.171.794-.268 1.224.107-.065.183-.108.258-.161.064-.032.129-.065.182-.097 2.105-1.149 4.199-2.287 6.304-3.436.408-.226.848-.344 1.299-.408.021 0 .054.01.075 0a2.666 2.666 0 0 1 1.718.333c.043.021.086.086.14.032.054-.054 0-.097-.022-.14a108.54 108.54 0 0 0-.794-1.578c-.022-.054-.043-.097-.065-.15.194.085.365.182.526.29.462.3.902.633 1.343.966.053.043.107.075.118-.032a1454.33 1454.33 0 0 1 4.016 4.22c.021.021.043.043.064.075.022.032.076.054.043.107-.032.054-.075.011-.118 0-.311-.15-.623-.29-.934-.44-1.289-.601-2.577-1.203-3.866-1.815-.483-.236-.966-.462-1.503-.537-.763-.107-1.482-.021-2.159.376-2.953 1.75-5.916 3.49-8.87 5.24-.053.033-.096.054-.182.108.086-.312.172-.58.247-.849l2.416-8.408c.054-.171.14-.193.29-.204 1.053-.075 2.094-.247 3.082-.644.269-.107.526-.236.762-.386.13-.086.258-.162.366-.269-.022-.054-.065-.032-.097-.032H7.259c-.15 0-.28.064-.408.129-.537.257-.945.665-1.3 1.127a7.767 7.767 0 0 0-1.02 1.761.64.64 0 0 1-.15.226l-1.03 1.095c-.033.032-.054.108-.13.065-.064-.043-.01-.097 0-.15.376-1.279.892-2.514 1.472-3.705a32.461 32.461 0 0 1 1.643-2.996c.247-.409.547-.784.88-1.117.086-.086.097-.118-.032-.161-.3-.118-.601-.237-.902-.365.15-.258.354-.484.558-.698a6.892 6.892 0 0 1 2.245-1.59 6.662 6.662 0 0 1 3.844-.472c1.578.268 2.9 1.01 3.962 2.212a6.909 6.909 0 0 1 1.321 2.233 6.778 6.778 0 0 1 .333 3.136c-.01.15.021.333-.107.473Z"/><path fill="#FBB61D" d="M11.426 13.242c.354-.3.676-.633.912-1.041.022-.043.065-.086.054-.15h-1.493c-.043 0-.096.02-.14-.011-.128-.258-.31-.494-.407-.763-.215-.569-.247-1.116.129-1.643.225-.311.536-.526.89-.676.29-.129.58-.258.903-.3 1.417.171 3.028.998 3.468 3.006.15.676.161 1.364.086 2.05-.01.119-.054.13-.15.108-.365-.053-.741-.107-1.106-.172a.34.34 0 0 0-.333.119c1.095.322 2.04.89 2.91 1.578-.032.3-.054.601-.086.902-.01.107-.054.075-.118.032-.43-.343-.88-.665-1.342-.966a3.506 3.506 0 0 0-.526-.29c.021.054.042.097.064.15.268.526.526 1.053.795 1.579.021.043.075.086.021.14-.054.053-.097-.011-.14-.033a2.809 2.809 0 0 0-1.718-.333h-.075c-.021-.021-.043-.053-.064-.075a7.508 7.508 0 0 1-1.471-1.503c-.42-.516-.752-1.106-1.063-1.708Z"/><path fill="#4C8FCC" d="M18.438 14.016c.118-.14.096-.323.118-.484.129-1.073.032-2.115-.333-3.135a6.723 6.723 0 0 0-1.321-2.234 6.665 6.665 0 0 0-3.962-2.212 6.662 6.662 0 0 0-3.845.473c-.859.375-1.61.902-2.244 1.589-.204.215-.408.43-.558.698-.172-.065-.344-.129-.527-.204 0-.108.065-.183.13-.258.29-.397.633-.74.987-1.095.097-.054.172-.14.258-.215a9.639 9.639 0 0 1 1.439-.923c.107-.033.204-.076.3-.14.537-.204 1.085-.387 1.665-.494a1.45 1.45 0 0 0 .376-.064c.58-.043 1.17-.054 1.76 0 .108.021.226.043.345.043.58.128 1.16.268 1.707.504.064.022.129.054.193.075.537.269 1.042.58 1.514.935.065.086.161.14.247.204.451.408.849.859 1.203 1.342a.919.919 0 0 0 .161.236c.311.516.57 1.053.784 1.622.054.182.097.354.15.537.14.58.215 1.17.226 1.771 0 .204-.011.398-.011.602a9.82 9.82 0 0 1-.322 1.675c-.065.118-.086 0-.097-.032-.118-.269-.225-.537-.343-.816Z"/><path fill="#0658A3" d="M22.368 7.82c-1.246.128-2.47.257-3.716.386.71-1.074 1.407-2.126 2.105-3.2.655.88 1.213 1.793 1.61 2.814Zm-.247-.258-1.117-.677c-.043-.021-.086-.043-.14-.01-.472.3-.955.612-1.428.912-.032.022-.075.054-.053.108.021.043.064.021.096.01.387-.053.773-.096 1.15-.15.493-.064.966-.129 1.492-.193Zm-3.06 7.817c.526-.043 1.009-.086 1.492-.129.72-.064 1.439-.118 2.17-.182.096-.01.16-.022.128.118-.268.956-.612 1.88-1.106 2.738-.064.118-.107.118-.204.022-.762-.806-1.536-1.6-2.309-2.395-.053-.043-.096-.097-.172-.172Zm2.652 2.32c-.054-.44-.108-.849-.15-1.257-.011-.096-.054-.14-.14-.171-.505-.172-.999-.344-1.493-.516-.043-.01-.107-.075-.15-.01-.043.064.032.107.075.139l1.181 1.181c.215.204.44.398.677.634ZM20.628 4.824c-1.149.483-2.276.966-3.436 1.46.365-1.246.72-2.448 1.074-3.672.87.644 1.664 1.353 2.362 2.212Zm-.365-.15V4.64c-.386-.097-.784-.193-1.17-.29-.119-.032-.183 0-.247.086a13.29 13.29 0 0 1-.505.59c-.183.215-.354.42-.537.634-.021.032-.075.065-.032.108.032.043.064.01.107 0 .054-.022.097-.043.15-.065.333-.15.656-.3.988-.45.42-.205.827-.398 1.246-.58Zm-.74 5.82c.987-.838 1.954-1.654 2.92-2.481.365.988.644 1.976.74 3.017.012.108.012.14-.117.118-1.16-.225-2.33-.43-3.544-.655Zm3.51.354c-.322-.355-.6-.666-.89-.988-.044-.054-.097-.032-.151-.022-.515.15-1.02.301-1.536.451-.053.011-.14.011-.128.086 0 .075.085.065.14.075.837.13 1.674.258 2.566.398ZM10.535 4.126C9.987 3.32 9.44 2.515 8.891 1.72c-.15-.215-.3-.44-.45-.655C8.386.99 8.396.97 8.482.947 9.085.797 9.686.68 10.298.614A8.71 8.71 0 0 1 11.479.55c.075 0 .118-.011.086.107-.344 1.138-.676 2.287-1.01 3.426 0 .01-.01.01-.02.043ZM11.232.7c-.376.28-.72.537-1.063.784-.043.032-.043.075-.032.118.097.537.193 1.074.29 1.6.01.043 0 .129.075.129.064 0 .064-.075.086-.118.172-.634.344-1.257.505-1.89.043-.193.118-.387.14-.623Zm1.794 3.48c-.13-.409-.247-.795-.376-1.182-.247-.773-.494-1.557-.741-2.33-.043-.129-.022-.15.107-.14.838.043 1.654.15 2.47.344.193.043.376.097.569.172-.676 1.041-1.342 2.072-2.03 3.135Zm1.642-3.072h-.085c-.376.14-.763.28-1.139.408-.064.022-.075.065-.086.118a83.173 83.173 0 0 0-.182 1.622c0 .043-.032.118.032.14.064.02.086-.054.107-.097.237-.376.462-.741.688-1.117.225-.354.44-.709.665-1.074Zm8.258 13.66c-1.084-.602-2.158-1.203-3.264-1.816.376-.15.74-.29 1.095-.44.773-.311 1.546-.612 2.33-.923.043-.011.13-.118.14.032.043.891-.043 2.276-.3 3.146Zm-.096-.387c.042-.076 0-.108-.022-.15-.14-.323-.29-.634-.419-.967-.043-.118-.107-.15-.225-.15l-1.214-.033c-.14 0-.268-.021-.408-.021-.032 0-.064 0-.086.032-.01.043.011.064.054.086.022.01.043.021.075.032.655.344 1.3.677 1.955 1.02.086.054.193.097.29.15ZM8.29 4.78a573.704 573.704 0 0 0-2.985-2.363c.354-.236.72-.44 1.084-.623.559-.279 1.117-.526 1.718-.698.097-.032.13-.032.14.086.01 1.182.032 2.352.054 3.533 0 .011-.011.022-.011.065ZM7.936 1.3c-.258.355-.505.698-.752 1.031-.032.043-.043.097-.01.15.246.484.504.967.75 1.45.022.043.033.108.097.086.065-.021.043-.086.043-.129-.01-.461-.01-.923-.043-1.374-.042-.397-.01-.795-.085-1.214Zm7.259 3.576V3.46c-.011-.741-.022-1.482-.043-2.223 0-.118 0-.161.14-.107.923.322 1.803.72 2.62 1.245.042.032.085.065.15.108-.945.805-1.88 1.61-2.814 2.416-.021-.022-.043-.022-.053-.022Zm2.49-2.459c-.031-.01-.042-.021-.064-.01l-1.245.064c-.075 0-.097.054-.118.118-.204.483-.408.977-.612 1.46-.022.054-.076.119-.022.162.065.042.108-.033.14-.065.397-.354.784-.709 1.181-1.063.258-.225.494-.44.74-.666ZM4.66 8.013l-1.45-.097c-.719-.053-1.449-.107-2.168-.15-.14-.01-.172-.022-.108-.172.398-.87.87-1.707 1.46-2.459.13-.172.14-.172.258.01.645.914 1.289 1.816 1.922 2.728.033.032.086.065.086.14ZM2.448 5.339c-.043.43-.043.838-.075 1.246-.01.086.01.14.097.182.472.247.945.505 1.417.752.054.021.108.086.161.021.043-.053-.021-.096-.053-.14-.387-.515-.763-1.03-1.15-1.546a16.6 16.6 0 0 1-.397-.515Zm3.845.73C5.09 5.586 3.93 5.114 2.738 4.63c.73-.805 1.514-1.535 2.438-2.126.376 1.192.74 2.363 1.117 3.565Zm-.451-.708c0-.011-.011-.022-.011-.043-.258-.806-.559-1.6-.805-2.406-.011-.021-.022-.053-.054-.053s-.054.032-.065.064c-.096.365-.247.709-.375 1.063-.033.097-.011.161.053.226l.967.998c.064.065.118.129.171.193.022.022.043.033.076.022.032 0 .043-.022.043-.064Z"/><path fill="#FCB71F" d="M17.88 8.432a10.22 10.22 0 0 0-1.203-1.343c.762-.247 1.524-.504 2.308-.762-.386.72-.751 1.407-1.106 2.105Zm-1.461-1.547a9.574 9.574 0 0 0-1.514-.934c.612-.43 1.224-.848 1.825-1.278.065-.043.118-.064.204-.043-.064.054-.086.118-.096.204-.13.677-.28 1.364-.42 2.051Zm2.394 3.404a10.248 10.248 0 0 0-.783-1.621l2.212-.065c.053 0 .118-.021.15.033.021.043-.043.075-.075.107-.494.516-.999 1.03-1.504 1.546Zm-4.102-4.424c-.547-.236-1.127-.386-1.707-.504.462-.57.934-1.139 1.396-1.708.032-.032.054-.097.107-.075.065.021.033.086.033.129.064.72.118 1.439.171 2.158Zm4.489 6.722a8.994 8.994 0 0 0-.226-1.771c.752.225 1.515.461 2.31.698-.72.375-1.407.73-2.084 1.073Zm-6.54-7.27c-.59-.053-1.17-.042-1.76 0 .279-.687.568-1.374.848-2.061.01-.043.032-.054.064-.054.043 0 .043.022.065.054.257.698.526 1.374.783 2.062Zm-2.126.065c-.569.107-1.117.28-1.664.494.075-.698.14-1.396.215-2.094 0-.054-.022-.118.043-.14.064-.021.085.054.118.086.43.548.859 1.106 1.288 1.654Zm8.333 9.482a9.82 9.82 0 0 0 .322-1.675c.634.45 1.267.891 1.944 1.374-.784.108-1.525.204-2.266.3ZM8.58 6.004c-.505.27-.988.57-1.44.924l-.353-1.965c-.011-.086-.054-.16-.022-.268.612.44 1.214.88 1.815 1.31Zm-1.697 1.14c-.343.343-.698.697-.988 1.094-.053.076-.129.15-.129.258l-.902-1.933c-.021-.043-.032-.086 0-.118.043-.043.076 0 .119.01.644.226 1.267.463 1.9.688Z"/><path fill="#FDCE0C" d="M11.426 13.242c.31.602.644 1.192 1.052 1.73.43.558.902 1.073 1.471 1.503a.467.467 0 0 1 .064.075c-.461.064-.89.182-1.299.408-2.105 1.149-4.199 2.287-6.303 3.436a2.828 2.828 0 0 0-.183.097c-.032-.043.01-.054.032-.075a38.573 38.573 0 0 0 1.557-1.686 22.2 22.2 0 0 0 1.268-1.59c.644-.87 1.224-1.782 1.664-2.78.118-.27.258-.527.28-.817.139-.107.268-.204.397-.3Z"/><path fill="#FBB61D" d="M11.028 13.532c-.021.301-.16.559-.279.816-.44 1-1.02 1.912-1.664 2.782a25.67 25.67 0 0 1-1.268 1.589c-.504.58-1.02 1.138-1.557 1.686-.021.021-.064.032-.032.075-.075.043-.15.097-.258.161.097-.43.183-.827.269-1.224.322-1.46.633-2.932.956-4.392.032-.129.096-.172.214-.183 1-.15 1.965-.44 2.878-.88.247-.129.494-.28.741-.43Z"/><path fill="#FDCE0C" d="M12.274 8.668c-.322.032-.612.172-.902.3-.344.162-.666.366-.891.677-.376.516-.344 1.074-.13 1.643.108.28.28.505.409.762-.849.011-1.697.011-2.545 0-.43 0-.86.011-1.289.097-.096.022-.204.043-.29.097-.032.021-.064.053-.118.021-.064-.043-.01-.086 0-.129a5.248 5.248 0 0 1 .87-1.524c.999-1.235 2.298-1.869 3.855-1.987.344-.022.687-.032 1.03.043Z"/><path fill="#4C8FCC" d="M22.12 7.562c-.525.075-1.009.14-1.481.193-.387.054-.773.097-1.15.15-.031 0-.074.033-.096-.01-.021-.054.011-.086.054-.108.472-.3.956-.612 1.428-.912.054-.033.097-.011.14.01.343.215.708.43 1.106.677Zm-.407 10.137c-.236-.226-.462-.43-.677-.645a61.254 61.254 0 0 1-1.181-1.18c-.043-.044-.118-.076-.075-.14.043-.065.097-.011.15.01.505.172.999.344 1.493.516.086.032.129.075.14.172.042.418.096.827.15 1.267Zm-1.45-13.026c-.419.194-.827.387-1.246.57-.332.15-.655.3-.987.45-.054.022-.097.043-.15.065-.033.01-.076.043-.108 0-.043-.054 0-.075.032-.108.183-.214.354-.418.537-.633.172-.193.333-.397.505-.59.064-.087.128-.119.247-.087.386.108.784.194 1.17.29v.043Zm2.77 6.175c-.88-.14-1.728-.269-2.566-.398-.054-.01-.14 0-.14-.075s.076-.075.13-.086l1.535-.45c.054-.011.097-.033.15.02.28.312.57.634.892.989ZM11.234.7c-.022.236-.097.43-.151.623-.161.633-.333 1.256-.505 1.89-.01.054-.01.118-.086.118-.075 0-.064-.086-.075-.129-.097-.537-.193-1.074-.29-1.6-.01-.043-.01-.086.032-.118.355-.247.698-.505 1.074-.784Zm3.435.408c-.225.376-.44.73-.655 1.085-.225.376-.461.74-.687 1.117-.021.042-.043.118-.107.096-.065-.021-.043-.096-.032-.14.064-.536.128-1.084.182-1.62.01-.055.01-.098.086-.119.387-.129.762-.268 1.138-.408.011-.022.033-.01.075-.01Zm8.162 13.273c-.097-.054-.194-.097-.301-.15-.655-.344-1.3-.677-1.955-1.02-.021-.012-.053-.022-.075-.033-.032-.022-.064-.043-.053-.086.01-.043.053-.032.086-.032.14.01.268.021.408.021.408.011.805.033 1.213.033.118 0 .183.042.226.15.128.322.279.644.418.966.033.043.065.075.033.15ZM7.936 1.3c.085.42.043.817.075 1.214.032.462.032.913.043 1.374 0 .043.021.108-.043.13-.065.02-.075-.044-.097-.087a93.241 93.241 0 0 1-.752-1.45c-.032-.053-.021-.107.011-.15.247-.343.494-.676.763-1.03Zm9.75 1.117c-.247.226-.483.44-.72.666-.397.354-.783.709-1.18 1.063-.044.032-.076.118-.14.065-.065-.043 0-.108.021-.162.204-.483.408-.977.612-1.46.022-.054.043-.107.118-.118l1.246-.065c-.01-.01.01 0 .043.011ZM2.448 5.34c.13.172.258.354.387.526.386.516.762 1.031 1.149 1.547.032.042.097.085.054.14-.054.064-.108 0-.161-.022-.473-.247-.945-.505-1.418-.752-.086-.043-.097-.097-.097-.183.043-.418.043-.826.086-1.256Zm3.394.022c0 .032-.011.053-.033.075-.032.01-.053 0-.075-.022-.053-.064-.118-.129-.172-.193l-.966-.999c-.064-.064-.086-.129-.054-.225.118-.355.28-.698.376-1.063.01-.033.022-.065.065-.065.032 0 .043.022.053.054.247.816.548 1.6.806 2.405-.011.011-.011.022 0 .033Z"/></g></svg>