<svg xmlns="http://www.w3.org/2000/svg" width="18" height="19"><g fill="#0EA5E9" fill-rule="nonzero"><path d="M2.463 13.311c.66.46 1.73.46 2.39 0 .66-.46.66-1.207 0-1.667-.66-.46-1.73-.46-2.39 0-.66.46-.66 1.207 0 1.667ZM9.314 7.059c.99.69 2.595.69 3.585 0 .99-.69.99-1.81 0-2.501-.99-.69-2.595-.69-3.585 0-.99.69-.99 1.81 0 2.5ZM5.677 10.185c.825.575 2.163.575 2.988 0 .825-.576.825-1.509 0-2.084-.825-.576-2.163-.576-2.988 0-.825.575-.825 1.508 0 2.084ZM.371 9.768c.495.345 1.298.345 1.793 0 .495-.345.495-.905 0-1.25-.495-.346-1.298-.346-1.793 0-.495.345-.495.905 0 1.25ZM5.677 3.516c.825.575 2.163.575 2.988 0 .825-.576.825-1.509 0-2.084-.825-.576-2.163-.576-2.988 0-.825.575-.825 1.508 0 2.084ZM2.463 6.642c.66.46 1.73.46 2.39 0 .66-.46.66-1.207 0-1.667-.66-.46-1.73-.46-2.39 0-.66.46-.66 1.207 0 1.667ZM5.677 16.854c.825.576 2.163.576 2.988 0 .825-.575.825-1.509 0-2.084-.825-.576-2.163-.576-2.988 0-.825.575-.825 1.509 0 2.084ZM13.672 10.393c.99.69 2.595.69 3.585 0 .99-.69.99-1.81 0-2.5-.99-.691-2.595-.691-3.585 0-.99.69-.99 1.81 0 2.5ZM9.314 13.728c.99.69 2.595.69 3.585 0 .99-.69.99-1.81 0-2.501-.99-.69-2.595-.69-3.585 0-.99.69-.99 1.81 0 2.5Z"/></g></svg>