<svg xmlns="http://www.w3.org/2000/svg" width="18" height="18">
    <path fill="#22D3EE" fill-rule="nonzero" d="M8.529 4.983C8.35 3.464 8.164 1.86 8.164 0h1.672c0 1.84-.186 3.441-.363 4.961-.145 1.24-.282 2.424-.308 3.64.84-.875 1.573-1.803 2.342-2.775.949-1.199 1.95-2.465 3.266-3.78l1.182 1.181c-1.302 1.301-2.565 2.302-3.765 3.251l-.001.001c-.978.774-1.913 1.514-2.79 2.356 1.212-.026 2.387-.163 3.618-.306 1.518-.178 3.122-.365 4.983-.365v1.672c-1.84 0-3.441-.187-4.961-.363h-.001c-1.239-.145-2.423-.282-3.64-.308.875.839 1.803 1.572 2.774 2.34l.002.002c1.199.949 2.465 1.95 3.78 3.266l-1.18 1.182c-1.302-1.301-2.303-2.565-3.252-3.765l-.003-.003-.001-.003c-.773-.975-1.512-1.909-2.353-2.786.026 1.217.163 2.402.308 3.64.177 1.52.363 3.122.363 4.962H8.164c0-1.861.187-3.464.365-4.983v-.002c.143-1.23.28-2.405.306-3.617-.84.877-1.58 1.81-2.353 2.786l-.001.003-.003.003c-.95 1.2-1.95 2.464-3.251 3.765l-1.182-1.182c1.316-1.316 2.582-2.317 3.781-3.266l.002-.001c.971-.769 1.899-1.502 2.774-2.341-1.217.026-2.402.163-3.64.308-1.52.176-3.122.363-4.962.363V8.164c1.861 0 3.465.187 4.983.365 1.231.143 2.406.28 3.619.306-.879-.842-1.814-1.583-2.792-2.357-1.2-.95-2.464-1.95-3.765-3.251l1.182-1.182c1.316 1.316 2.317 2.582 3.266 3.78.769.973 1.503 1.901 2.342 2.777-.026-1.212-.163-2.386-.306-3.617v-.002Z" />
</svg>