<?xml version="1.0" standalone="no"?>
<!DOCTYPE svg PUBLIC "-//W3C//DTD SVG 20010904//EN"
 "http://www.w3.org/TR/2001/REC-SVG-20010904/DTD/svg10.dtd">
<svg version="1.0" xmlns="http://www.w3.org/2000/svg"
 width="700.000000pt" height="700.000000pt" viewBox="0 0 700.000000 700.000000"
 preserveAspectRatio="xMidYMid meet">
<metadata>
Created by potrace 1.14, written by Peter Selinger 2001-2017
</metadata>
<g transform="translate(0.000000,700.000000) scale(0.100000,-0.100000)"
fill="#000000" stroke="none">
<path d="M3190 6593 c-92 -7 -339 -45 -442 -68 -338 -76 -689 -218 -968 -390
-328 -204 -669 -537 -894 -874 -287 -429 -451 -902 -497 -1426 -15 -172 -6
-571 16 -735 20 -152 58 -335 100 -480 141 -488 428 -972 795 -1335 l80 -80
165 165 c91 91 165 169 165 174 0 4 -31 43 -68 85 -382 426 -631 874 -726
1302 -79 357 -82 831 -5 1159 143 616 496 1133 1019 1492 425 292 941 456
1490 474 621 22 1174 -129 1664 -454 473 -312 835 -798 990 -1330 133 -453
129 -1039 -10 -1498 -101 -335 -335 -736 -628 -1078 -42 -49 -75 -92 -74 -96
6 -15 372 -350 379 -348 13 5 161 179 255 300 339 436 538 911 608 1448 93
710 2 1350 -268 1890 -166 332 -351 587 -594 822 -511 493 -1168 797 -1886
873 -132 14 -526 19 -666 8z"/>
<path d="M2250 4884 c-188 -22 -331 -58 -647 -165 -276 -93 -286 -98 -317
-162 -50 -100 -31 -196 63 -308 45 -53 52 -68 71 -157 82 -370 269 -639 550
-786 342 -179 873 -85 1112 196 124 146 204 307 263 524 26 92 27 104 16 179
-6 44 -11 90 -11 103 l0 23 148 -3 c125 -3 146 -5 143 -18 -2 -8 -10 -37 -18
-65 -19 -70 -5 -141 67 -338 74 -199 124 -288 219 -389 126 -134 271 -221 451
-269 121 -33 354 -33 484 -1 181 45 345 144 458 275 153 178 242 372 286 621
l17 100 44 26 c29 17 53 41 68 70 21 39 23 56 21 143 l-3 99 -110 34 c-60 20
-184 64 -275 98 -312 120 -421 146 -650 153 -300 10 -492 -39 -762 -193 l-97
-55 -108 28 c-153 39 -316 40 -455 0 -54 -15 -104 -24 -115 -20 -10 4 -47 26
-83 49 -208 133 -429 202 -675 209 -66 2 -136 1 -155 -1z m370 -274 c124 -30
239 -89 309 -158 95 -94 131 -186 131 -341 -1 -246 -93 -426 -282 -548 -299
-194 -618 -155 -879 106 -47 47 -99 108 -114 135 -77 132 -101 283 -71 436 45
229 166 330 460 386 104 20 337 12 446 -16z m2303 -14 c117 -35 180 -68 242
-127 92 -86 135 -198 135 -344 0 -102 -20 -187 -69 -289 -91 -194 -229 -312
-428 -368 -99 -28 -273 -30 -378 -4 -173 42 -323 155 -392 297 -62 125 -96
336 -74 454 27 146 123 263 274 336 130 62 228 79 432 75 149 -3 181 -6 258
-30z"/>
<path d="M2902 3149 c-74 -13 -157 -44 -220 -81 -52 -32 -106 -75 -300 -239
-92 -78 -222 -152 -288 -165 -57 -11 -109 11 -182 78 -81 74 -180 148 -197
148 -7 0 -18 -20 -25 -45 -11 -38 -10 -55 4 -112 73 -288 255 -510 530 -647
142 -70 194 -81 381 -80 145 0 168 3 250 28 50 15 131 47 180 70 90 43 292
172 387 246 27 22 57 40 67 40 9 0 55 -32 101 -71 279 -234 537 -330 849 -316
210 9 374 67 519 182 158 127 301 360 338 553 16 83 12 127 -12 136 -23 9 -41
-5 -129 -95 -103 -105 -156 -133 -250 -133 -49 0 -81 5 -105 18 -47 25 -152
110 -285 231 -60 55 -133 117 -161 138 -104 75 -221 112 -355 111 -160 -1
-291 -61 -423 -192 l-73 -73 -89 89 c-49 49 -111 102 -138 117 -95 55 -262 84
-374 64z"/>
</g>
</svg>
