<?xml version="1.0" standalone="no"?>
<!DOCTYPE svg PUBLIC "-//W3C//DTD SVG 20010904//EN"
 "http://www.w3.org/TR/2001/REC-SVG-20010904/DTD/svg10.dtd">
<svg version="1.0" xmlns="http://www.w3.org/2000/svg"
 width="700.000000pt" height="700.000000pt" viewBox="0 0 700.000000 700.000000"
 preserveAspectRatio="xMidYMid meet">
<metadata>
Created by potrace 1.14, written by Peter Selinger 2001-2017
</metadata>
<g transform="translate(0.000000,700.000000) scale(0.100000,-0.100000)"
fill="#000000" stroke="none">
<path d="M1600 5175 c-220 -28 -277 -44 -830 -227 -376 -124 -423 -143 -451
-174 -53 -61 -86 -187 -69 -272 15 -79 72 -180 155 -272 35 -40 69 -131 86
-235 22 -137 119 -390 204 -533 176 -296 471 -549 748 -640 262 -87 632 -81
923 14 225 73 402 190 543 358 141 168 253 371 329 601 70 214 76 250 66 428
l-9 157 195 0 c107 0 204 -3 216 -6 l21 -6 -23 -56 c-44 -106 -26 -278 46
-441 16 -38 30 -74 30 -80 0 -6 11 -34 24 -63 13 -29 35 -82 49 -118 155 -411
513 -710 971 -809 148 -32 448 -30 605 5 279 62 505 192 684 392 233 260 391
601 437 945 15 110 22 124 73 146 49 21 101 76 128 135 15 34 19 67 19 188 l0
147 -41 11 c-23 6 -48 9 -57 5 -9 -3 -41 3 -72 14 -30 10 -95 31 -145 46 -93
28 -217 74 -318 120 -153 67 -424 147 -612 179 -490 85 -980 -6 -1396 -259
-52 -31 -110 -59 -129 -62 -22 -3 -63 4 -111 20 -140 46 -234 61 -389 61 -155
1 -204 -7 -353 -55 -113 -37 -131 -35 -234 33 -225 147 -470 246 -728 293
-124 23 -447 28 -585 10z m500 -372 c511 -83 770 -334 770 -748 0 -416 -188
-709 -567 -881 -152 -69 -231 -87 -393 -88 -122 -1 -157 3 -224 22 -318 92
-610 341 -727 620 -66 160 -80 349 -39 537 31 145 77 235 164 320 80 80 152
121 282 164 238 77 482 95 734 54z m3331 -12 c380 -81 566 -229 646 -512 27
-96 23 -307 -7 -414 -12 -44 -23 -94 -25 -111 -4 -36 -61 -154 -114 -234 -49
-75 -163 -194 -236 -245 -127 -90 -267 -145 -430 -170 -158 -24 -288 -16 -452
25 -104 27 -283 116 -360 180 -127 105 -222 263 -268 446 -115 451 -5 754 334
928 127 65 279 110 431 130 89 11 387 -3 481 -23z"/>
<path d="M2667 2690 c-137 -17 -293 -80 -424 -172 -34 -23 -149 -118 -255
-209 -212 -182 -262 -218 -406 -287 -85 -42 -104 -47 -162 -47 -86 1 -137 28
-260 140 -52 47 -132 111 -178 143 -93 63 -94 63 -112 -21 -15 -71 -13 -110 5
-103 10 4 16 -3 20 -22 15 -74 80 -257 119 -334 70 -138 133 -225 251 -343
201 -203 450 -342 715 -401 120 -27 367 -25 498 4 141 31 283 82 414 148 113
57 409 252 512 337 79 65 99 74 128 55 13 -9 80 -64 148 -123 334 -287 586
-400 970 -436 356 -33 697 51 941 231 263 196 500 584 539 886 15 114 -11 168
-69 149 -11 -3 -52 -41 -91 -83 -103 -111 -186 -180 -260 -216 -59 -28 -74
-31 -160 -31 -87 0 -101 3 -160 32 -70 35 -296 219 -445 362 -178 171 -332
267 -500 312 -111 30 -298 30 -407 1 -170 -46 -322 -140 -439 -274 -40 -46
-76 -84 -80 -86 -4 -2 -31 23 -60 54 -97 103 -231 213 -309 253 -126 65 -329
99 -483 81z"/>
</g>
</svg>
