<svg xmlns="http://www.w3.org/2000/svg" width="18" height="18">
    <path fill="#EF4444" fill-rule="evenodd" d="M6.172 0c-1.016 0-1.99.403-2.708 1.121L0 4.586v1.586C0 7.292.481 8.3 1.248 9A3.818 3.818 0 0 0 0 11.828v1.586l3.464 3.465A3.828 3.828 0 0 0 9 16.752a3.828 3.828 0 0 0 5.536.127L18 13.414v-1.586c0-1.12-.481-2.128-1.248-2.828A3.818 3.818 0 0 0 18 6.172V4.586L14.536 1.12A3.828 3.828 0 0 0 9 1.248 3.818 3.818 0 0 0 6.172 0Zm5.42 9a3.838 3.838 0 0 1-.128-.121L9 6.414 6.536 8.88A3.838 3.838 0 0 1 6.409 9l.127.121L9 11.586l2.464-2.465c.042-.041.084-.082.127-.121ZM10 13.414v.758a1.828 1.828 0 0 0 3.121 1.292L16 12.586v-.758a1.828 1.828 0 0 0-3.121-1.292L10 13.414Zm-2 0-2.879-2.878A1.828 1.828 0 0 0 2 11.828v.758l2.879 2.878A1.828 1.828 0 0 0 8 14.172v-.758Zm0-9.586v.758L5.121 7.464A1.828 1.828 0 0 1 2 6.172v-.758l2.879-2.878A1.828 1.828 0 0 1 8 3.828Zm4.879 3.636L10 4.586v-.758a1.828 1.828 0 0 1 3.121-1.292L16 5.414v.758a1.828 1.828 0 0 1-3.121 1.292Z" opacity=".88" />
</svg>