<svg xmlns="http://www.w3.org/2000/svg" width="18" height="18">
    <path fill="#A7F3D0" d="M18 9.677h-3.224a5.1 5.1 0 0 0-5.1 5.099V18A9.027 9.027 0 0 0 18 9.677Z" />
    <path fill="#10B981" d="M8.323 18v-3.224a5.1 5.1 0 0 0-5.099-5.1H0A9.027 9.027 0 0 0 8.323 18ZM18 8.323A9.027 9.027 0 0 0 9.677 0v3.224a5.1 5.1 0 0 0 5.099 5.1H18Z" />
    <path fill="#A7F3D0" d="M8.323 0A9.027 9.027 0 0 0 0 8.323h3.224a5.1 5.1 0 0 0 5.1-5.099V0Z" />
    <path fill="#10B981" d="M6.104 9A6.48 6.48 0 0 0 9 6.104 6.48 6.48 0 0 0 11.896 9 6.48 6.48 0 0 0 9 11.896 6.48 6.48 0 0 0 6.104 9Z" />
</svg>